<!-- Generated by IcoMoon.io -->
<svg version="1.1" xmlns="http://www.w3.org/2000/svg" width="15" height="15" viewBox="0 0 15 16">
<title>calendar-o</title>
<path d="M1.143 14.857h12.571v-9.143h-12.571v9.143zM4.571 4v-2.571c0-0.161-0.125-0.286-0.286-0.286h-0.571c-0.161 0-0.286 0.125-0.286 0.286v2.571c0 0.161 0.125 0.286 0.286 0.286h0.571c0.161 0 0.286-0.125 0.286-0.286zM11.429 4v-2.571c0-0.161-0.125-0.286-0.286-0.286h-0.571c-0.161 0-0.286 0.125-0.286 0.286v2.571c0 0.161 0.125 0.286 0.286 0.286h0.571c0.161 0 0.286-0.125 0.286-0.286zM14.857 3.429v11.429c0 0.625-0.518 1.143-1.143 1.143h-12.571c-0.625 0-1.143-0.518-1.143-1.143v-11.429c0-0.625 0.518-1.143 1.143-1.143h1.143v-0.857c0-0.786 0.643-1.429 1.429-1.429h0.571c0.786 0 1.429 0.643 1.429 1.429v0.857h3.429v-0.857c0-0.786 0.643-1.429 1.429-1.429h0.571c0.786 0 1.429 0.643 1.429 1.429v0.857h1.143c0.625 0 1.143 0.518 1.143 1.143z"></path>
</svg>
