<!-- Generated by IcoMoon.io -->
<svg version="1.1" xmlns="http://www.w3.org/2000/svg" width="32" height="32" viewBox="0 0 32 32">
<title>folder-heart</title>
<path d="M29 6h-13l-1-2h-11l-2 4h28z"></path>
<path d="M0 10l2 20h28l2-20h-32zM23 20.989l-0.008 0.008c-0.15 0.177-6.992 7.003-6.992 7.003s-6.835-6.821-6.976-6.984l-0.011-0.011 0.001-0c-0.632-0.742-1.014-1.703-1.014-2.754 0-2.347 1.903-4.25 4.25-4.25 1.624 0 3.034 0.911 3.75 2.25 0.716-1.338 2.126-2.249 3.75-2.249 2.347 0 4.25 1.903 4.25 4.25 0 1.044-0.377 1.999-1.001 2.738l0.001 0z"></path>
</svg>
